<svg width="229" height="60" viewBox="0 0 229 60" fill="none" xmlns="http://www.w3.org/2000/svg">
<path fill-rule="evenodd" clip-rule="evenodd" d="M32.798 57.904C31.8868 57.9942 30.9628 58.0404 30.0279 58.0404C18.8047 58.0404 9.13235 51.3821 4.72559 41.79L7.5762 36.8393C10.3639 46.7805 19.4928 54.0703 30.3243 54.0703C32.0343 54.0703 33.7019 53.8886 35.3088 53.5435L32.798 57.904ZM27.4512 2.32207C28.2997 2.244 29.1591 2.2041 30.0279 2.2041C41.3202 2.2041 51.0424 8.94454 55.4109 18.6317L52.8025 23.1617C49.7317 13.6803 40.8287 6.82422 30.3243 6.82422C28.29 6.82422 26.3158 7.08135 24.4324 7.56489L27.4512 2.32207Z" fill="#E9E9E9"/>
<path fill-rule="evenodd" clip-rule="evenodd" d="M58.0403 31.1161C57.7367 40.7339 52.5975 49.1284 44.9799 53.936L40.7392 51.4811C48.4477 47.5593 53.7346 39.501 53.7346 30.1971C53.7346 29.658 53.7169 29.1232 53.6819 28.593L58.0403 31.1161ZM2.2041 29.1729C2.55417 19.5639 7.73153 11.1903 15.3768 6.41791L19.6 8.86275C11.8374 12.7656 6.50488 20.8532 6.50488 30.1971C6.50488 30.6982 6.52021 31.1956 6.55043 31.689L2.2041 29.1729Z" fill="#E9E9E9"/>
<path fill-rule="evenodd" clip-rule="evenodd" d="M42.7499 47.8739C42.1647 48.2936 41.5534 48.6885 40.9167 49.0561C33.2707 53.4705 24.0625 52.7388 17.2876 47.9373L17.2824 43.4436C23.0915 49.1197 32.1779 50.4954 39.557 46.2351C40.7219 45.5626 41.7864 44.783 42.7453 43.9159L42.7499 47.8739ZM17.2459 12.1117C17.7932 11.7247 18.3632 11.3594 18.9551 11.0176C26.6479 6.57621 35.9221 7.34414 42.7084 12.2251L42.7131 16.3373C36.8919 11.0861 28.1302 9.91715 20.9742 14.0487C19.5882 14.8488 18.3444 15.8006 17.2514 16.8709L17.2459 12.1117Z" fill="#808080"/>
<path fill-rule="evenodd" clip-rule="evenodd" d="M49.4105 19.6965C52.9866 26.368 52.7873 34.1081 49.4888 40.3795L45.6341 40.375C49.343 34.6713 49.7753 27.1022 46.1159 20.7639C45.9038 20.3967 45.6814 20.0393 45.4491 19.6918L49.4105 19.6965ZM10.6078 40.3341C7.06687 33.6503 7.30049 25.9094 10.6318 19.6512L14.4703 19.6557C10.7172 25.3677 10.2654 32.9747 13.9406 39.3403C14.1376 39.6816 14.3438 40.0145 14.5584 40.3387L10.6078 40.3341Z" fill="#808080"/>
<path d="M76.995 43V17.765H82.42V37.54H102.195V43H76.995ZM103.395 43V22.7H108.75V43H103.395ZM103.395 21.44V16.05H108.75V21.44H103.395ZM117.03 43C116.12 43 115.28 42.7667 114.51 42.3C113.74 41.8333 113.121 41.215 112.655 40.445C112.188 39.675 111.955 38.835 111.955 37.925V36.91H117.31V37.645H127.18V35.545H117.03C116.12 35.545 115.28 35.3117 114.51 34.845C113.74 34.3783 113.121 33.76 112.655 32.99C112.188 32.22 111.955 31.38 111.955 30.47V27.775C111.955 26.865 112.188 26.025 112.655 25.255C113.121 24.485 113.74 23.8667 114.51 23.4C115.28 22.9333 116.12 22.7 117.03 22.7H127.46C128.393 22.7 129.245 22.9333 130.015 23.4C130.785 23.8667 131.403 24.485 131.87 25.255C132.336 26.025 132.57 26.865 132.57 27.775V28.79H127.18V28.055H117.31V30.155H127.46C128.393 30.155 129.245 30.3883 130.015 30.855C130.785 31.3217 131.403 31.94 131.87 32.71C132.336 33.48 132.57 34.32 132.57 35.23V37.925C132.57 38.835 132.336 39.675 131.87 40.445C131.403 41.215 130.785 41.8333 130.015 42.3C129.245 42.7667 128.393 43 127.46 43H117.03ZM140.464 43C139.531 43 138.679 42.7667 137.909 42.3C137.139 41.8333 136.521 41.215 136.054 40.445C135.611 39.675 135.389 38.835 135.389 37.925V30.155H150.614V28.055H135.389V22.7H150.894C151.827 22.7 152.679 22.9333 153.449 23.4C154.219 23.8667 154.826 24.485 155.269 25.255C155.736 26.025 155.969 26.865 155.969 27.775V43H140.464ZM140.744 37.645H150.614V34.845H140.744V37.645ZM159.166 43V17.765H164.591V37.54H184.366V43H159.166ZM185.776 43V17.8H209.051V23.26H191.271V27.67H205.586V33.13H191.271V43H185.776Z" fill="#E9E9E9"/>
</svg>
