<svg width="65" height="65" viewBox="0 0 65 65" fill="none" xmlns="http://www.w3.org/2000/svg">
<path d="M32.4998 2.59998V20.8H23.3998C18.3883 20.8 14.2998 16.7115 14.2998 11.7C14.2998 6.68848 18.3883 2.59998 23.3998 2.59998H32.4998ZM32.4998 23.4V41.6H23.3998C18.3883 41.6 14.2998 37.5115 14.2998 32.5C14.2998 27.4885 18.3883 23.4 23.3998 23.4H32.4998ZM32.4998 44.2V53.3C32.4998 58.3115 28.4113 62.4 23.3998 62.4C18.3883 62.4 14.2998 58.3115 14.2998 53.3C14.2998 48.2885 18.3883 44.2 23.3998 44.2H32.4998ZM53.2998 11.7C53.2998 16.7115 49.2113 20.8 44.1998 20.8H35.0998V2.59998H44.1998C49.2113 2.59998 53.2998 6.68848 53.2998 11.7ZM44.1998 23.4C41.7863 23.4 39.4717 24.3587 37.7651 26.0653C36.0586 27.7719 35.0998 30.0865 35.0998 32.5C35.0998 34.9134 36.0586 37.2281 37.7651 38.9346C39.4717 40.6412 41.7863 41.6 44.1998 41.6C46.6133 41.6 48.9279 40.6412 50.6345 38.9346C52.3411 37.2281 53.2998 34.9134 53.2998 32.5C53.2998 30.0865 52.3411 27.7719 50.6345 26.0653C48.9279 24.3587 46.6133 23.4 44.1998 23.4Z" fill="white"/>
</svg>
