<svg width="64" height="64" viewBox="0 0 64 64" fill="none" xmlns="http://www.w3.org/2000/svg">
<path d="M7.68012 5.12C6.27212 5.12 5.12012 6.272 5.12012 7.68V56.32C5.12012 57.728 6.27212 58.88 7.68012 58.88H56.3201C57.7281 58.88 58.8801 57.728 58.8801 56.32V7.68C58.8801 6.272 57.7281 5.12 56.3201 5.12H7.68012ZM25.5101 17.92H28.9926L35.1351 46.08H32.0126L30.2326 37.85H24.0901L22.2726 46.08H19.2001L25.5101 17.92ZM41.8951 17.92C43.0855 17.92 43.8401 18.7271 43.8401 19.9175C43.8401 21.1207 43.0855 21.9275 41.8951 21.9275H41.8551C40.8055 21.9275 40.0001 21.1207 40.0001 19.9175C40.0001 18.7271 40.8455 17.92 41.8951 17.92ZM27.1751 21.0425C26.8423 23.1289 26.4322 25.5109 26.0226 27.3925L24.6151 34.56H29.8501L28.4026 27.3525C27.993 25.3813 27.6229 23.0905 27.2901 21.0425H27.1751ZM40.3201 24.32H43.5201V46.08H40.3201V24.32Z" fill="white"/>
</svg>
