<svg width="64" height="64" viewBox="0 0 64 64" fill="none" xmlns="http://www.w3.org/2000/svg">
<path d="M26.5184 2.63678L26.2032 2.82718C25.7024 3.12958 25.232 3.46878 24.792 3.83838L25.6992 3.19998H33.4L34.8 13.8016L27.8 20.8L20.8 25.6656V31.2768C20.8 35.1952 22.848 38.8288 26.2 40.8576L33.5696 45.3184L18 54.4H14.9968L9.4 51.0128C6.048 48.984 4 45.3504 4 41.432V22.5648C4 18.6448 6.0496 15.0096 9.4032 12.9808L26.2032 2.81918C26.3072 2.75678 26.4128 2.69598 26.5184 2.63678Z" fill="white"/>
<path d="M18.2162 55.2H14.773L8.9858 51.696C5.4178 49.536 3.2002 45.6032 3.2002 41.432V22.5648C3.2002 18.392 5.4194 14.4576 8.989 12.2976L26.1218 1.9408L26.3906 2.4H34.101L35.645 14.088L28.365 21.3664L21.6002 26.0832V31.2768C21.6002 34.8928 23.5218 38.3008 26.6146 40.1744L35.1362 45.3312L18.2162 55.2ZM15.221 53.6H17.7858L32.0066 45.304L25.7874 41.5408C22.2194 39.3808 20.0018 35.4464 20.0018 31.2752V25.248L27.3458 20.144L33.957 13.5152L32.6994 4H25.9522L25.253 4.4928L25.1666 4.3824L9.8178 13.6672C6.7218 15.5376 4.8002 18.9472 4.8002 22.5648V41.432C4.8002 45.048 6.7218 48.456 9.8146 50.3296L15.221 53.6Z" fill="white"/>
<path d="M26.5184 2.63678L26.2032 2.82718C25.7024 3.12958 25.232 3.46878 24.792 3.83838L25.6992 3.19998H33.4L34.8 13.8016L27.8 20.8L20.8 25.6656V31.2768C20.8 35.1952 22.848 38.8288 26.2 40.8576L33.5696 45.3184L18 54.4H14.9968L9.4 51.0128C6.048 48.984 4 45.3504 4 41.432V22.5648C4 18.6448 6.0496 15.0096 9.4032 12.9808L26.2032 2.81918C26.3072 2.75678 26.4128 2.69598 26.5184 2.63678Z" fill="white"/>
<path d="M18.2162 55.2H14.773L8.9858 51.696C5.4178 49.536 3.2002 45.6032 3.2002 41.432V22.5648C3.2002 18.392 5.4194 14.4576 8.989 12.2976L26.1218 1.9408L26.3906 2.4H34.101L35.645 14.088L28.365 21.3664L21.6002 26.0832V31.2768C21.6002 34.8928 23.5218 38.3008 26.6146 40.1744L35.1362 45.3312L18.2162 55.2ZM15.221 53.6H17.7858L32.0066 45.304L25.7874 41.5408C22.2194 39.3808 20.0018 35.4464 20.0018 31.2752V25.248L27.3458 20.144L33.957 13.5152L32.6994 4H25.9522L25.253 4.4928L25.1666 4.3824L9.8178 13.6672C6.7218 15.5376 4.8002 18.9472 4.8002 22.5648V41.432C4.8002 45.048 6.7218 48.456 9.8146 50.3296L15.221 53.6Z" fill="black"/>
<path d="M43.1996 25V31.272C43.1996 35.1904 41.1516 38.824 37.7996 40.8528L20.9996 51.0224C17.5628 53.1024 13.2876 53.1776 9.79004 51.248L26.2012 61.1808C29.766 63.3392 34.2348 63.3392 37.8012 61.1808L54.6012 51.0112C57.9532 48.9824 60.0012 45.3488 60.0012 41.4304V36.8992L58.6012 34.8L43.1996 25Z" fill="white"/>
<path d="M31.9996 63.6064C29.8508 63.6064 27.7004 63.0272 25.7852 61.8672L9.37402 51.9328L10.174 50.5472C13.4204 52.3376 17.4092 52.2592 20.5852 50.3392L37.3852 40.1696C40.478 38.2976 42.3996 34.888 42.3996 31.272V23.5424L59.2652 34.3552L60.7996 36.6576V41.4304C60.7996 45.6016 58.582 49.536 55.014 51.696L38.214 61.8656C36.2988 63.0272 34.1484 63.6064 31.9996 63.6064ZM14.9452 53.4336L26.614 60.4976C29.9356 62.5072 34.0636 62.5088 37.3852 60.4976L54.1852 50.328C57.278 48.456 59.1996 45.0464 59.1996 41.432V37.1424L58.0284 35.384L43.9996 26.456V31.272C43.9996 35.4432 41.782 39.3776 38.214 41.5376L21.414 51.7072C19.4364 52.9024 17.1916 53.48 14.9452 53.4336Z" fill="white"/>
<path d="M43.1996 25V31.272C43.1996 35.1904 41.1516 38.824 37.7996 40.8528L20.9996 51.0224C17.5628 53.1024 13.2876 53.1776 9.79004 51.248L26.2012 61.1808C29.766 63.3392 34.2348 63.3392 37.8012 61.1808L54.6012 51.0112C57.9532 48.9824 60.0012 45.3488 60.0012 41.4304V36.8992L58.6012 34.8L43.1996 25Z" fill="white"/>
<path d="M31.9996 63.6064C29.8508 63.6064 27.7004 63.0272 25.7852 61.8672L9.37402 51.9328L10.174 50.5472C13.4204 52.3376 17.4092 52.2592 20.5852 50.3392L37.3852 40.1696C40.478 38.2976 42.3996 34.888 42.3996 31.272V23.5424L59.2652 34.3552L60.7996 36.6576V41.4304C60.7996 45.6016 58.582 49.536 55.014 51.696L38.214 61.8656C36.2988 63.0272 34.1484 63.6064 31.9996 63.6064ZM14.9452 53.4336L26.614 60.4976C29.9356 62.5072 34.0636 62.5088 37.3852 60.4976L54.1852 50.328C57.278 48.456 59.1996 45.0464 59.1996 41.432V37.1424L58.0284 35.384L43.9996 26.456V31.272C43.9996 35.4432 41.782 39.3776 38.214 41.5376L21.414 51.7072C19.4364 52.9024 17.1916 53.48 14.9452 53.4336Z" fill="black"/>
<path d="M54.5966 12.9824L37.7966 2.82079C34.3438 0.731194 30.043 0.667194 26.5374 2.62719L26.203 2.82879C22.8494 4.85599 20.7998 8.49119 20.7998 12.4112V25.688L26.203 22.4192C29.7662 20.264 34.2318 20.264 37.7966 22.4192L54.5966 32.5808C57.8462 34.5456 59.8702 38.0192 59.9934 41.7968C59.9982 41.6752 59.9998 41.552 59.9998 41.4304V22.5648C59.9998 18.6448 57.9502 15.0096 54.5966 12.9824Z" fill="white"/>
<path d="M60.7936 41.8288L59.1936 41.824C59.0784 38.2944 57.2048 35.0944 54.1824 33.2656L37.3824 23.104C34.064 21.096 29.9392 21.096 26.616 23.104L20 27.1072V12.4112C20 8.23838 22.2192 4.30398 25.7888 2.14398L26.1248 1.94238C29.9008 -0.171222 34.5248 -0.0928219 38.2112 2.13758L55.0112 12.2992C58.5808 14.4576 60.8 18.392 60.8 22.5648L60.7936 41.8288ZM32 19.9984C34.1488 19.9984 36.296 20.5776 38.2112 21.736L55.0112 31.8976C56.7776 32.9664 58.2048 34.4416 59.2 36.168V22.5664C59.2 18.9504 57.2784 15.5392 54.1824 13.6672L37.3824 3.50558C34.1904 1.57278 30.1808 1.50398 26.928 3.32638L26.616 3.51518C23.5216 5.38398 21.6 8.79518 21.6 12.4112V24.2704L25.7888 21.736C27.704 20.576 29.8512 19.9984 32 19.9984Z" fill="black"/>
</svg>
