<svg width="64" height="64" viewBox="0 0 64 64" fill="none" xmlns="http://www.w3.org/2000/svg">
<path d="M7.68012 5.12C6.27212 5.12 5.12012 6.272 5.12012 7.68V56.32C5.12012 57.728 6.27212 58.88 7.68012 58.88H56.3201C57.7281 58.88 58.8801 57.728 58.8801 56.32V7.68C58.8801 6.272 57.7281 5.12 56.3201 5.12H7.68012ZM23.7826 17.92C26.3298 17.92 28.4937 18.5348 29.9401 19.93C31.2457 21.2356 31.9351 23.2458 31.9351 25.665C31.9351 28.1994 31.3225 29.9148 30.2601 31.31C28.7881 33.358 26.2027 34.38 23.7451 34.38C23.2203 34.38 22.8109 34.3809 22.3501 34.3425V46.08H19.2001V18.4575C20.4673 18.1247 21.9394 17.92 23.7826 17.92ZM24.2951 20.02C23.5527 20.02 22.9372 20.097 22.5276 20.225V31.245C22.8988 31.2834 23.2703 31.3225 23.7951 31.3225C26.8671 31.3225 28.9526 29.2737 28.9526 25.3825C28.9526 22.5537 27.8151 20.02 24.2951 20.02ZM40.5901 25.6C42.2157 25.6 43.3925 26.1002 44.2501 26.625L43.3926 29.0175C42.5862 28.4799 41.7409 28.11 40.6401 28.11C38.8993 28.11 38.0026 29.3366 38.0026 30.655C38.0026 31.9734 38.5149 32.7541 40.5501 34.0725C42.9309 35.5573 44.8001 37.4005 44.8001 40.1525C44.8001 44.1461 41.9974 46.08 38.5926 46.08C37.1078 46.08 35.4561 45.6315 34.5601 44.9275L35.3676 42.5475C36.0972 42.9955 37.3642 43.57 38.6826 43.57C40.513 43.57 41.7026 42.4564 41.7026 40.69C41.7026 39.1668 41.1515 38.1059 39.0651 36.7875C36.3899 35.0979 34.9451 33.3703 34.9451 31.1175C34.9451 27.8663 37.4029 25.6 40.5901 25.6Z" fill="white"/>
</svg>
