<svg width="64" height="64" viewBox="0 0 64 64" fill="none" xmlns="http://www.w3.org/2000/svg">
<path d="M7.68012 5.12C6.27212 5.12 5.12012 6.272 5.12012 7.68V56.32C5.12012 57.728 6.27212 58.88 7.68012 58.88H56.3201C57.7281 58.88 58.8801 57.728 58.8801 56.32V7.68C58.8801 6.272 57.7281 5.12 56.3201 5.12H7.68012ZM25.0701 17.92C27.6084 17.92 29.779 18.5324 31.2126 19.925C32.5221 21.2357 33.2176 23.2446 33.2176 25.66C33.2176 28.1995 32.6064 29.9199 31.5401 31.3125C30.0656 33.3605 27.4852 34.3825 25.0276 34.3825C24.4951 34.3825 24.0857 34.3822 23.6351 34.3425V46.08H20.4801V18.4525C21.7499 18.1248 23.2269 17.92 25.0701 17.92ZM25.5701 20.02C24.8328 20.02 24.2172 20.1008 23.8076 20.225V31.2425C24.1763 31.2822 24.5451 31.3225 25.0776 31.3225C28.1483 31.3225 30.2376 29.2737 30.2376 25.3825C30.2376 22.5563 29.0914 20.02 25.5701 20.02ZM44.1451 25.28C44.3909 25.28 44.5953 25.279 44.8001 25.32V28.32C44.5953 28.279 44.3922 28.28 44.1451 28.28C42.1432 28.28 40.799 30.1437 40.4726 32.4375C40.3907 32.97 40.3501 33.5437 40.3501 34.24L40.3126 46.08H37.1201V25.6H40.3126V28.48L40.4726 28C41.1267 26.1146 42.3058 25.28 44.1451 25.28Z" fill="white"/>
</svg>
