<svg width="64" height="64" viewBox="0 0 64 64" fill="none" xmlns="http://www.w3.org/2000/svg">
<path d="M32 7.98047L16.8672 10.1406L5.46094 26.1133L32 57.0742L58.5352 26.1133L47.1289 10.1406L32 7.98047ZM26.9414 12.7422L20.4062 20.2109L20.8594 13.6133L26.9414 12.7422ZM37.0586 12.7422L43.1406 13.6094L43.5938 20.2109L37.0586 12.7422ZM32 13.0391L41.5938 24H22.4062L32 13.0391ZM16.5898 17.4141L16.1328 24H11.8867L16.5898 17.4141ZM47.4102 17.418L52.1133 24H47.8672L47.4102 17.418ZM12.3516 28H16.7656L22.9453 40.3633L12.3516 28ZM21.2383 28H42.7617L32 49.5273L21.2383 28ZM47.2344 28H51.6484L41.0547 40.3633L47.2344 28Z" fill="white"/>
</svg>
