<svg width="64" height="64" viewBox="0 0 64 64" fill="none" xmlns="http://www.w3.org/2000/svg">
<path d="M38.5725 3.00196C35.2183 2.91008 31.8435 3.75505 28.8909 5.62891L28.887 5.63086L15.8479 13.9766C15.8459 13.9779 15.8441 13.9793 15.8421 13.9805L15.8401 13.9824C12.0465 16.3634 9.41591 20.257 8.65652 24.666C8.03919 28.1388 8.58763 31.6842 10.135 34.8418C9.07614 36.5478 8.32045 38.4052 7.99245 40.3691C7.99211 40.3711 7.99084 40.3729 7.9905 40.375C7.18787 44.8591 8.24442 49.4857 10.8616 53.1641C10.863 53.166 10.8641 53.1679 10.8655 53.1699L10.8675 53.1719C16.3886 61.043 27.2169 63.3644 35.0862 58.3691L48.1292 50.0703C51.9284 47.6898 54.5607 43.7929 55.3206 39.3809C55.9379 35.9082 55.3894 32.3626 53.8421 29.2051C54.9002 27.5003 55.6544 25.6421 55.9827 23.6797C56.8365 19.1457 55.7763 14.506 53.1057 10.8242C49.6834 5.90583 44.1572 3.15492 38.5725 3.00196ZM38.5296 5.00977C43.4949 5.15169 48.4294 7.59509 51.4729 11.9785C51.4774 11.9844 51.482 11.9903 51.4866 11.9961C53.8399 15.2386 54.7719 19.3213 54.0159 23.3203C54.0145 23.3275 54.0132 23.3346 54.012 23.3418C53.7037 25.1926 53.0008 26.9567 51.9378 28.5508C51.837 28.7018 51.7792 28.8773 51.7706 29.0587C51.762 29.24 51.8029 29.4202 51.8889 29.5801C53.4392 32.4584 53.9291 35.7834 53.3499 39.0352V39.041C52.6878 42.8849 50.3855 46.2955 47.0667 48.375C47.0647 48.3763 47.0628 48.3776 47.0608 48.3789L34.0139 56.6816C27.0839 61.0807 17.4189 59.0379 12.5003 52.0176C12.499 52.0156 12.4977 52.0137 12.4964 52.0117C10.186 48.7686 9.25037 44.6718 9.9612 40.7168C9.96188 40.7129 9.96253 40.709 9.96316 40.7051C10.2715 38.8542 10.9763 37.0902 12.0393 35.4961C12.1401 35.3451 12.1979 35.1695 12.2065 34.9882C12.2151 34.8069 12.1742 34.6266 12.0882 34.4668C10.5379 31.5885 10.0461 28.2615 10.6253 25.0098C10.6259 25.0078 10.6266 25.0059 10.6272 25.0039C11.2893 21.1601 13.5905 17.7514 16.9085 15.6719C16.9117 15.6699 16.915 15.668 16.9182 15.666L29.9612 7.31641L29.9651 7.31446C32.5624 5.66722 35.5518 4.92466 38.5296 5.00977ZM38.4417 8.94531C37.5678 8.96401 36.6866 9.08466 35.8128 9.31055C35.8003 9.31357 35.788 9.31682 35.7757 9.32031C34.754 9.62669 33.7568 10.0428 32.846 10.6309L32.844 10.6328C32.8423 10.6339 32.84 10.6336 32.8382 10.6348L19.6956 18.998C17.2988 20.4898 15.6084 22.97 15.1253 25.748C14.5982 28.6002 15.2853 31.5009 16.9143 33.8164L16.9163 33.8184L16.9182 33.8223C19.6414 37.7453 24.5211 39.5791 29.178 38.377H29.1819C30.2338 38.1134 31.241 37.6914 32.1507 37.1035L37.1526 33.9121C37.2466 33.8555 37.4603 33.7743 37.7151 33.6875C38.6143 33.4609 39.4952 33.7756 40.0237 34.5332C40.3009 34.9332 40.432 35.4995 40.3421 35.9805C40.2478 36.485 40.0053 36.8428 39.5393 37.1426L26.4534 45.5C26.3594 45.5566 26.1457 45.6378 25.8909 45.7246C25.0169 45.9443 24.1267 45.5984 23.5901 44.8359C23.3394 44.4547 23.2007 43.9379 23.2307 43.5117V43.5098L23.2757 43.0586C23.2986 42.8278 23.2406 42.5962 23.1117 42.4035C22.9827 42.2107 22.7907 42.0688 22.5686 42.002L22.0901 41.8574C20.33 41.3153 18.713 40.5052 17.2229 39.4219C17.2203 39.4206 17.2177 39.4193 17.2151 39.418L16.5452 38.9395C16.4165 38.8477 16.268 38.7878 16.1117 38.7645C15.9554 38.7412 15.7959 38.7553 15.6461 38.8057C15.4963 38.856 15.3606 38.941 15.25 39.0539C15.1395 39.1668 15.0572 39.3043 15.01 39.4551L14.7698 40.2207C14.7615 40.2471 14.7544 40.2738 14.7483 40.3008C14.6555 40.7175 14.5623 41.0997 14.4632 41.5449C14.4588 41.5624 14.4549 41.58 14.4514 41.5977C13.9792 44.4292 14.6116 47.3342 16.301 49.6621C19.0257 53.5822 23.905 55.4184 28.5608 54.2148C28.5733 54.2112 28.5856 54.2073 28.5979 54.2031C29.6223 53.8959 30.6206 53.4793 31.5335 52.8887L31.5276 52.8945L44.678 44.5234C47.0766 43.0305 48.7686 40.5482 49.2503 37.7676C49.2509 37.7656 49.2516 37.7637 49.2522 37.7617C49.7233 34.9307 49.0922 32.0253 47.4026 29.6973C44.678 25.7771 39.7986 23.941 35.1428 25.1445C35.1304 25.1476 35.118 25.1508 35.1057 25.1543C34.0833 25.4609 33.0875 25.878 32.176 26.4668L27.1682 29.6602C27.0732 29.7166 26.862 29.7968 26.6096 29.8828C25.7106 30.1094 24.8293 29.7944 24.301 29.0371C24.0239 28.6371 23.8928 28.0689 23.9827 27.5879C24.077 27.0834 24.3175 26.7275 24.7835 26.4277L37.8694 18.0703L37.8753 18.0684C37.9703 18.0119 38.1815 17.9317 38.4339 17.8457C39.3295 17.62 40.2057 17.9345 40.7346 18.6855C40.9853 19.0668 41.1241 19.5836 41.094 20.0098V20.0117L41.0491 20.4629C41.0257 20.694 41.0834 20.926 41.2124 21.1192C41.3415 21.3124 41.5337 21.4546 41.7561 21.5215L42.2288 21.6621H42.2307L42.2346 21.6641C43.9948 22.2062 45.6118 23.0163 47.1018 24.0996C47.1044 24.1009 47.107 24.1022 47.1096 24.1035L47.7796 24.584C47.9082 24.6757 48.0568 24.7357 48.213 24.7589C48.3693 24.7822 48.5289 24.7681 48.6787 24.7178C48.8285 24.6675 48.9642 24.5824 49.0747 24.4695C49.1853 24.3566 49.2675 24.2192 49.3147 24.0684L49.5471 23.3203L49.553 23.3027C49.7079 22.8363 49.8126 22.4159 49.9104 21.9766C49.9141 21.9591 49.9174 21.9415 49.9202 21.9238C50.3924 19.0925 49.7616 16.1878 48.0706 13.8613C46.0276 10.9221 42.776 9.15353 39.3128 8.96094C39.0238 8.94487 38.733 8.93908 38.4417 8.94531ZM38.4905 10.9453C38.7294 10.94 38.9684 10.9441 39.2053 10.957C42.0674 11.1139 44.7481 12.5723 46.4378 15.0098C46.4422 15.0163 46.4468 15.0228 46.4514 15.0293C47.8165 16.9032 48.3317 19.2521 47.9475 21.5801C47.8988 21.7973 47.8384 21.9886 47.7854 22.1836C46.3384 21.1979 44.7847 20.4177 43.1175 19.873L43.0882 20.1563C43.0965 20.0401 43.002 19.942 43.0003 19.8262C42.9369 19.8059 42.8804 19.7715 42.8167 19.752L42.9944 19.8047C42.9783 19.0201 42.839 18.2299 42.3987 17.5684C42.3949 17.5625 42.391 17.5566 42.387 17.5508C41.3862 16.1124 39.5946 15.475 37.9163 15.9102C37.8939 15.9159 37.8718 15.9224 37.8499 15.9297C37.5649 16.025 37.2137 16.1311 36.8382 16.3574C36.8309 16.3619 36.8238 16.3664 36.8167 16.3711L23.7053 24.7441L23.7014 24.7461C22.8274 25.3084 22.2076 26.1952 22.0159 27.2207C21.8198 28.2697 22.0717 29.3318 22.6565 30.1758V30.1777C23.6573 31.6162 25.4489 32.2535 27.1272 31.8184C27.1496 31.8126 27.1717 31.8061 27.1936 31.7988C27.4786 31.7035 27.8298 31.5974 28.2053 31.3711C28.2126 31.3666 28.2197 31.3621 28.2268 31.3574L33.2503 28.1523C33.2522 28.1511 33.2542 28.1497 33.2561 28.1484C33.9624 27.6915 34.7767 27.3459 35.6565 27.0801C39.5099 26.09 43.5176 27.5997 45.7678 30.8457C45.7723 30.8516 45.7769 30.8575 45.7815 30.8633C47.1477 32.7416 47.6654 35.095 47.2796 37.4258C46.8992 39.6212 45.5288 41.6371 43.6214 42.8242C43.6187 42.8262 43.6161 42.8281 43.6135 42.8301L30.4534 51.207C30.4514 51.2083 30.4495 51.2096 30.4475 51.2109C29.7412 51.6679 28.9269 52.0135 28.0471 52.2793C24.1937 53.2694 20.1861 51.7597 17.9358 48.5137C17.9313 48.5071 17.9268 48.5006 17.9221 48.4941C16.5562 46.6162 16.0381 44.2653 16.4241 41.9356C16.4678 41.7407 16.514 41.5427 16.5589 41.3516C18.0004 42.3308 19.5476 43.1082 21.2073 43.6504L21.2366 43.3672C21.2283 43.4834 21.3227 43.5813 21.3245 43.6973C21.3878 43.7175 21.4444 43.7519 21.5081 43.7715L21.3303 43.7188C21.3465 44.5033 21.4858 45.2917 21.926 45.9531C21.9299 45.959 21.9338 45.9649 21.9378 45.9707C22.9307 47.3979 24.7077 48.1012 26.4085 47.6602C26.4308 47.6544 26.453 47.6479 26.4749 47.6406C26.7599 47.5453 27.111 47.4392 27.4866 47.2129C27.4938 47.2084 27.501 47.2039 27.5081 47.1992L40.6194 38.8262L40.6214 38.8242C41.4954 38.262 42.1172 37.3751 42.3089 36.3496C42.505 35.3006 42.2531 34.2386 41.6682 33.3945L41.6663 33.3926C40.6658 31.9545 38.8757 31.3168 37.1975 31.752C37.1752 31.7577 37.153 31.7642 37.1311 31.7715C36.8461 31.8668 36.495 31.9729 36.1194 32.1992C36.1122 32.2037 36.105 32.2082 36.0979 32.2129L31.0745 35.418C31.0725 35.4193 31.0706 35.4206 31.0686 35.4219C30.3555 35.8833 29.5476 36.2252 28.6897 36.4395C28.6871 36.4401 28.6845 36.4407 28.6819 36.4414C24.8243 37.4387 20.8098 35.9257 18.5569 32.6758C18.5556 32.6738 18.5543 32.6719 18.553 32.6699C17.2201 30.778 16.6636 28.419 17.0921 26.1074C17.0927 26.1035 17.0934 26.0996 17.094 26.0957C17.4743 23.9003 18.8448 21.8844 20.7522 20.6973C20.7548 20.6953 20.7574 20.6934 20.76 20.6914L33.9182 12.3184C33.9208 12.3171 33.9234 12.3158 33.926 12.3145C34.634 11.8564 35.4501 11.5102 36.3323 11.2441C37.0508 11.06 37.7737 10.9612 38.4905 10.9453Z" fill="white"/>
</svg>
