<svg width="89" height="64" viewBox="0 0 89 64" fill="none" xmlns="http://www.w3.org/2000/svg">
<path d="M44.5 0C32.6333 0 25.2167 7.11111 22.25 21.3333C26.7 14.2222 31.8917 11.5556 37.825 13.3333C41.2103 14.3477 43.6299 17.2911 46.3082 20.5493C50.6712 25.857 55.7208 32 66.75 32C78.6167 32 86.0333 24.8889 89 10.6667C84.55 17.7778 79.3583 20.4444 73.425 18.6667C70.0397 17.6523 67.6201 14.7089 64.9418 11.4507C60.5788 6.14301 55.5292 0 44.5 0ZM22.25 32C10.3833 32 2.96667 39.1111 0 53.3333C4.45 46.2222 9.64167 43.5556 15.575 45.3333C18.9603 46.3477 21.3799 49.2911 24.0582 52.5493C28.4212 57.857 33.4708 64 44.5 64C56.3667 64 63.7833 56.8889 66.75 42.6667C62.3 49.7778 57.1083 52.4444 51.175 50.6667C47.7897 49.6523 45.3701 46.7089 42.6918 43.4507C38.3288 38.143 33.2792 32 22.25 32Z" fill="#E9E9E9"/>
</svg>
